PathFileType	4	(X/Y/Z)	Run_200 02
DataRate	CameraRate	NumFrames	NumMarkers	Units	OrigDataRate	OrigDataStartFrame	OrigNumFrames
120	120	4	42	mm	120	256	128
Frame#	Time	LASI			RASI			LPSI			RPSI			RTH1			RTH2			RTH3			LTH1			LTH2			LTH3			RTB1			RTB2			RTB3			LTB1			LTB2			LTB3			RCAL			RTOE			RMT5			LCAL			LTOE			LMT5			LACR			RACR			CLAV			C7			RUA1			RUA2			RUA3			RLEL			RMEL			LUA1			LUA2			LUA3			LLEL			LMEL			RFAsuperior			RFAradius			RFAulna			LFAsuperior			LFAradius			LFAulna			
		X1	Y1	Z1	X2	Y2	Z2	X3	Y3	Z3	X4	Y4	Z4	X5	Y5	Z5	X6	Y6	Z6	X7	Y7	Z7	X8	Y8	Z8	X9	Y9	Z9	X10	Y10	Z10	X11	Y11	Z11	X12	Y12	Z12	X13	Y13	Z13	X14	Y14	Z14	X15	Y15	Z15	X16	Y16	Z16	X17	Y17	Z17	X18	Y18	Z18	X19	Y19	Z19	X20	Y20	Z20	X21	Y21	Z21	X22	Y22	Z22	X23	Y23	Z23	X24	Y24	Z24	X25	Y25	Z25	X26	Y26	Z26	X27	Y27	Z27	X28	Y28	Z28	X29	Y29	Z29	X30	Y30	Z30	X31	Y31	Z31	X32	Y32	Z32	X33	Y33	Z33	X34	Y34	Z34	X35	Y35	Z35	X36	Y36	Z36	X37	Y37	Z37	X38	Y38	Z38	X39	Y39	Z39	X40	Y40	Z40	X41	Y41	Z41	X42	Y42	Z42	

256	2.258333	893.96793	1064.210494	-462.631787	887.357443	1050.393975	-204.778318	707.244813	1091.884018	-375.232352	704.518819	1082.42032	-294.018852	833.158529	872.625961	-164.968179	884.117843	768.078136	-174.443997	818.0289770000001	653.647425	-201.653298	873.223445	858.165217	-517.0774269999999	965.394816	760.844241	-500.337518	934.542918	633.505355	-478.827571	767.823213	407.962343	-277.29394	695.3444030000001	400.339947	-210.379555	637.970368	319.6437	-279.269122	994.257919	406.877497	-401.674979	950.263775	326.279269	-453.304199	931.202187	216.877436	-382.411105	428.384745	381.297159	-296.703405	499.601401	159.266011	-286.153868	445.132871	217.525128	-204.171882	783.975586	100.806405	-371.629687	1018.160711	77.52386199999999	-350.374703	948.169052	53.295508	-442.423513	906.893625	1516.634481	-528.514727	900.222141	1542.636654	-183.747243	953.869568	1475.043747	-319.621821	827.966798	1564.269193	-356.598068	862.801298	1444.895793	-101.630827	844.4177110000001	1357.037423	-101.541819	773.191443	1372.013466	-68.16861	728.502778	1245.571458	-20.909729	687.297622	1241.759884	-96.249236	871.81194	1435.378736	-606.1763089999999	862.207136	1364.187414	-601.592102	766.269525	1376.757557	-604.688027	719.7664590000001	1224.63288	-668.526044	669.911026	1225.921453	-595.54349	831.654388	1226.948013	-51.266499	961.456304	1231.316621	-175.922128	963.047041	1170.231775	-133.461696	808.518634	1196.702078	-640.109915	938.547776	1174.801059	-509.869793	929.106506	1109.266274	-539.308217	
257	2.266667	892.357797	1061.841383	-463.041016	885.45923	1045.658518	-203.910893	704.94782	1088.035241	-372.958863	702.869724	1077.508611	-292.50417	834.99672	868.347814	-164.89523	889.302215	765.203998	-174.621359	825.818263	649.94203	-202.579752	869.7593869999999	854.562218	-517.870451	961.147143	756.131881	-502.256904	929.480866	628.935964	-479.267978	779.704804	407.231779	-277.557318	707.9268070000001	400.292985	-209.794377	650.5551400000001	319.486537	-278.484914	987.194298	401.921342	-402.534023	940.129018	322.08781	-454.271592	917.8311200000001	213.748117	-382.942773	438.638524	384.615393	-293.879276	510.8613	162.847676	-284.475518	457.619594	221.008763	-201.450039	767.5338819999999	101.159042	-372.142567	1001.676752	76.850926	-350.899333	931.482496	52.998601	-443.210566	906.67719	1510.112931	-529.574513	897.797463	1537.840861	-183.590072	953.376167	1470.362093	-319.28538	827.7635	1560.169907	-357.887436	858.760085	1439.561594	-102.168067	838.567795	1351.818918	-102.836677	767.43118	1367.692229	-69.551596	720.45479	1242.179554	-23.086346	681.23869	1238.616098	-99.041648	875.693168	1425.179738	-607.434575	866.243396	1353.622227	-600.629294	771.143129	1364.399236	-608.516607	729.568143	1211.125808	-671.594263	678.449886	1211.240306	-599.731808	823.389687	1217.731291	-50.628393	955.850071	1212.147849	-173.010363	953.632459	1152.622493	-128.895723	817.997315	1183.398506	-642.334223	945.982847	1163.373162	-508.479811	938.036398	1098.084605	-538.6842830000001	
258	2.275	890.818386	1059.219379	-463.232013	883.721225	1041.698627	-202.34618	703.230724	1084.867526	-371.448505	701.833137	1073.411195	-291.691027	836.4546759999999	864.591315	-164.972826	894.551432	762.851026	-174.740072	833.865447	646.8757869999999	-203.133401	866.092847	851.176431	-518.603521	956.512422	749.966905	-504.153882	923.432093	624.216241	-479.46004	791.922838	406.600021	-277.792434	721.006413	400.240779	-209.203001	663.618456	319.336383	-277.69639	979.19636	397.316022	-403.022441	929.2017039999999	318.29871	-455.279824	904.027921	211.165696	-383.542788	449.728135	386.659554	-291.044922	523.683073	165.378206	-282.968414	470.987704	223.001196	-199.164004	750.97479	101.422911	-372.439354	985.11599	76.298647	-351.2508	914.684844	52.807182	-443.760846	906.572928	1504.109437	-530.254264	895.772136	1533.772322	-183.518339	952.867498	1465.467526	-318.902886	827.165545	1556.280769	-358.895888	854.780667	1435.535471	-102.835587	833.032636	1347.747672	-104.458789	762.023516	1364.365348	-71.30706000000001	712.717238	1239.492331	-25.556403	675.640652	1236.263892	-102.080572	878.93441	1416.338557	-607.479143	870.672858	1344.024261	-599.27919	776.3248579999999	1353.267822	-611.598485	740.199656	1198.293305	-674.027933	687.784279	1196.989155	-603.441158	815.083222	1208.97062	-50.229518	949.526631	1192.51358	-169.856717	943.401788	1134.833176	-123.986403	828.205347	1170.564213	-643.606491	954.0609020000001	1151.976792	-506.794966	947.392567	1086.937261	-537.811774	
259	2.283333	889.434767	1056.406375	-463.442025	882.308983	1038.522293	-200.439187	702.172522	1082.331642	-370.808452	701.2560140000001	1070.128072	-291.588735	837.479883	861.281599	-165.234933	899.744613	761.117028	-174.78403	842.192323	644.321268	-203.319728	862.555325	848.413114	-519.240225	951.606387	743.699656	-505.744413	916.901404	619.9736	-479.752703	804.49279	406.260439	-278.019646	734.5573439999999	400.09624	-208.695047	677.147364	319.096802	-276.990275	970.377799	393.389957	-403.361521	917.922832	315.273528	-456.38088	890.1405109999999	209.289411	-384.423619	461.595164	387.378551	-288.232167	537.74596	166.751313	-281.679428	485.128366	223.53011	-197.256938	734.451891	101.69928	-372.72946	968.580359	75.751459	-351.608959	897.837144	52.58539	-444.216907	906.571203	1498.693295	-530.624266	893.93836	1530.584687	-183.41402	952.2614139999999	1460.789134	-318.397506	826.191972	1552.736337	-359.7476	850.85551	1432.689767	-103.591146	827.909633	1344.808922	-106.128542	756.978145	1362.044973	-73.439881	705.421692	1237.605628	-28.274879	670.156222	1234.791243	-105.23692	881.007054	1409.061001	-606.28205	875.525942	1335.839568	-597.832825	781.440655	1343.563233	-613.471709	751.564652	1186.521469	-675.601238	697.492453	1183.686534	-606.386299	806.805872	1200.868579	-50.17325	942.4437830000001	1172.830863	-166.403977	932.2578559999999	1117.260379	-118.799345	839.241545	1159.035028	-643.432404	962.86959	1141.121815	-504.995953	957.192144	1076.267188	-536.726915	
